<svg width="1110" height="183" viewBox="0 0 1110 183" fill="none" xmlns="http://www.w3.org/2000/svg">
<path d="M53.8354 180L50.5034 150.25H31.4634L28.6074 180H0.523438L22.8954 2.92801H60.4994L84.5374 180H53.8354ZM40.7454 59.096L34.5574 119.786H47.4094L40.7454 59.096Z" fill="black"/>
<path d="M98.4921 2.92801H130.146V148.108H163.704V180H98.4921V2.92801Z" fill="black"/>
<path d="M180.295 2.92801H246.459V34.106H211.949V72.662H239.081V104.554H211.949V148.108H248.125V180H180.295V2.92801Z" fill="black"/>
<path d="M299.874 0.786011H306.3C318.517 0.786011 327.244 3.56267 332.48 9.116C337.716 14.6693 340.334 23.4753 340.334 35.534V59.334H309.87V37.2C309.87 31.012 307.569 27.918 302.968 27.918C298.366 27.918 296.066 31.0913 296.066 37.438V41.484C296.066 49.4173 299.318 57.0333 305.824 64.332L323.912 84.562C331.528 93.13 336.605 100.825 339.144 107.648C341.841 114.312 343.19 121.769 343.19 130.02V138.35C343.19 152.154 339.937 162.943 333.432 170.718C327.085 178.334 317.486 182.142 304.634 182.142H298.446C274.328 182.142 262.27 169.925 262.27 145.49V113.598H293.448V141.92C293.448 149.06 296.145 152.63 301.54 152.63C306.776 152.63 309.394 148.346 309.394 139.778V136.446C309.394 129.782 308.759 124.784 307.49 121.452C306.379 117.961 303.602 113.757 299.16 108.838L280.834 88.608C274.487 81.7853 270.044 74.8833 267.506 67.902C265.126 60.9207 263.936 52.8287 263.936 43.626V36.01C263.936 24.7447 267.109 16.0973 273.456 10.068C279.802 3.88001 288.608 0.786011 299.874 0.786011Z" fill="black"/>
<path d="M395.39 0.786011H401.816C414.033 0.786011 422.76 3.56267 427.996 9.116C433.232 14.6693 435.85 23.4753 435.85 35.534V59.334H405.386V37.2C405.386 31.012 403.085 27.918 398.484 27.918C393.882 27.918 391.582 31.0913 391.582 37.438V41.484C391.582 49.4173 394.834 57.0333 401.34 64.332L419.428 84.562C427.044 93.13 432.121 100.825 434.66 107.648C437.357 114.312 438.706 121.769 438.706 130.02V138.35C438.706 152.154 435.453 162.943 428.948 170.718C422.601 178.334 413.002 182.142 400.15 182.142H393.962C369.844 182.142 357.786 169.925 357.786 145.49V113.598H388.964V141.92C388.964 149.06 391.661 152.63 397.056 152.63C402.292 152.63 404.91 148.346 404.91 139.778V136.446C404.91 129.782 404.275 124.784 403.006 121.452C401.895 117.961 399.118 113.757 394.676 108.838L376.35 88.608C370.003 81.7853 365.56 74.8833 363.022 67.902C360.642 60.9207 359.452 52.8287 359.452 43.626V36.01C359.452 24.7447 362.625 16.0973 368.972 10.068C375.318 3.88001 384.124 0.786011 395.39 0.786011Z" fill="black"/>
<path d="M487.109 2.92801V180H455.455V2.92801H487.109Z" fill="black"/>
<path d="M588.926 45.768V139.54C588.926 152.709 585.594 163.181 578.93 170.956C572.266 178.731 563.064 182.618 551.322 182.618H544.182C531.648 182.618 522.128 178.969 515.622 171.67C509.117 164.213 505.864 153.503 505.864 139.54V46.006C505.864 15.8593 518.558 0.786011 543.944 0.786011H551.084C576.312 0.786011 588.926 15.78 588.926 45.768ZM555.844 140.492V43.388C555.844 35.6133 553.068 31.726 547.514 31.726C541.802 31.726 538.946 35.6133 538.946 43.388V140.492C538.946 147.473 541.882 150.964 547.752 150.964C553.147 150.964 555.844 147.473 555.844 140.492Z" fill="black"/>
<path d="M673.251 30.298V75.042H679.439C682.771 75.042 685.072 74.328 686.341 72.9C687.61 71.3133 688.245 68.4573 688.245 64.332V40.294C688.245 36.3273 687.69 33.7093 686.579 32.44C685.627 31.012 683.564 30.298 680.391 30.298H673.251ZM673.251 104.316V180H641.597V2.92801H691.577C710.934 2.92801 720.613 12.7653 720.613 32.44V60.762C720.613 72.5033 715.932 80.4367 706.571 84.562C709.903 85.8313 712.997 88.2113 715.853 91.702C718.709 95.034 720.137 99.6353 720.137 105.506V165.72C720.137 171.273 721.01 175.637 722.755 178.81V180H691.101C689.197 177.779 688.245 173.257 688.245 166.434V114.788C688.245 110.663 687.61 107.886 686.341 106.458C685.23 105.03 683.088 104.316 679.915 104.316H673.251Z" fill="black"/>
<path d="M787.972 180L784.641 150.25H765.6L762.744 180H734.66L757.032 2.92801H794.636L818.674 180H787.972ZM774.883 59.096L768.694 119.786H781.546L774.883 59.096Z" fill="black"/>
<path d="M879.277 109.076H864.283V180H832.629V2.92801H877.611C890.304 2.92801 898.872 5.78401 903.315 11.496C907.916 17.208 910.217 26.014 910.217 37.914V73.376C910.217 97.176 899.904 109.076 879.277 109.076ZM864.283 30.298V80.278H870.233C873.565 80.278 875.707 79.4847 876.659 77.898C877.77 76.1527 878.325 73.614 878.325 70.282V40.77C878.325 37.1207 877.77 34.5027 876.659 32.916C875.707 31.1707 873.565 30.298 870.233 30.298H864.283Z" fill="black"/>
<path d="M959.799 2.92801V180H928.145V2.92801H959.799Z" fill="black"/>
<path d="M979.269 2.92801H1009.02L1030.68 93.368V2.92801H1058.76V180H1031.87L1007.35 82.896V180H979.269V2.92801Z" fill="black"/>
<path d="M1109.93 2.92801V180H1078.27V2.92801H1109.93Z" fill="black"/>
</svg>
